<svg width="886" height="120" viewBox="0 0 886 120" fill="none" xmlns="http://www.w3.org/2000/svg">
<g filter="url(#filter0_d)">
<path d="M63.1465 89.5273H79.2109C84.4518 89.5273 88.5046 88.1764 91.3691 85.4746C94.2663 82.7402 95.7148 78.8991 95.7148 73.9512V53.0527C95.7148 48.1048 94.2663 44.2799 91.3691 41.5781C88.5046 38.8438 84.4518 37.4766 79.2109 37.4766H63.1465V28.0039H78.918C84.6146 28.0039 89.4811 28.9967 93.5176 30.9824C97.554 32.9681 100.63 35.8652 102.746 39.6738C104.862 43.4824 105.92 48.0723 105.92 53.4434V73.5605C105.92 78.9316 104.862 83.5215 102.746 87.3301C100.63 91.1387 97.5378 94.0358 93.4688 96.0215C89.4323 98.0072 84.5658 99 78.8691 99H63.1465V89.5273ZM56.4082 28.0039H66.3691V99H56.4082V28.0039ZM142.871 99.7324C139.095 99.7324 135.628 98.9674 132.471 97.4375C129.313 95.9076 126.742 93.7591 124.756 90.9922L132.91 85.1328C133.822 86.7279 135.14 87.9648 136.865 88.8438C138.59 89.7227 140.592 90.1621 142.871 90.1621C146.745 90.1621 149.74 88.9577 151.855 86.5488C154.004 84.14 155.078 80.7546 155.078 76.3926V28.0039H165.039V76.4414C165.039 81.3568 164.176 85.556 162.451 89.0391C160.726 92.5221 158.203 95.1751 154.883 96.998C151.562 98.821 147.559 99.7324 142.871 99.7324ZM211.561 28.0039H220.057L246.229 99H235.486L215.809 41.7246L196.131 99H185.389L211.561 28.0039ZM197.449 73.9512H234.803V83.4238H197.449V73.9512ZM286.402 99.7324C282.984 99.7324 279.745 99.4069 276.686 98.7559C273.626 98.1048 270.761 97.1283 268.092 95.8262C265.455 94.5241 262.981 92.8965 260.67 90.9434L266.871 83.3262C269.573 85.6699 272.551 87.4277 275.807 88.5996C279.062 89.7715 282.594 90.3574 286.402 90.3574C291.546 90.3574 295.533 89.4134 298.365 87.5254C301.197 85.6048 302.613 82.903 302.613 79.4199V79.3711C302.613 76.8971 301.962 74.944 300.66 73.5117C299.391 72.0469 297.73 70.9727 295.68 70.2891C293.661 69.5729 291.041 68.9219 287.818 68.3359C287.721 68.3034 287.607 68.2871 287.477 68.2871C287.379 68.2871 287.281 68.2708 287.184 68.2383L286.451 68.0918C281.699 67.278 277.825 66.3665 274.83 65.3574C271.868 64.3158 269.329 62.444 267.213 59.7422C265.097 57.0078 264.039 53.1341 264.039 48.1211V48.0723C264.039 43.6777 265.016 39.9342 266.969 36.8418C268.954 33.7168 271.835 31.3405 275.611 29.7129C279.387 28.0853 283.928 27.2715 289.234 27.2715C291.773 27.2715 294.264 27.5482 296.705 28.1016C299.179 28.6549 301.604 29.485 303.98 30.5918C306.389 31.666 308.749 33.0332 311.061 34.6934L305.396 42.6035C302.695 40.6178 299.993 39.1367 297.291 38.1602C294.622 37.151 291.936 36.6465 289.234 36.6465C284.384 36.6465 280.608 37.623 277.906 39.5762C275.237 41.4967 273.902 44.2311 273.902 47.7793V47.8281C273.902 50.2695 274.586 52.1901 275.953 53.5898C277.353 54.9896 279.078 56.0312 281.129 56.7148C283.212 57.3659 286.093 58.0495 289.771 58.7656C289.902 58.7982 290.016 58.8307 290.113 58.8633C290.243 58.8633 290.374 58.8796 290.504 58.9121C290.667 58.9447 290.846 58.9772 291.041 59.0098C291.236 59.0423 291.415 59.0749 291.578 59.1074C295.875 59.9863 299.456 61.028 302.32 62.2324C305.217 63.4368 307.626 65.39 309.547 68.0918C311.5 70.7611 312.477 74.4232 312.477 79.0781V79.1758C312.477 83.5052 311.451 87.2161 309.4 90.3086C307.35 93.3685 304.371 95.7122 300.465 97.3398C296.591 98.9349 291.904 99.7324 286.402 99.7324ZM358.07 99.7324C354.652 99.7324 351.413 99.4069 348.354 98.7559C345.294 98.1048 342.429 97.1283 339.76 95.8262C337.123 94.5241 334.649 92.8965 332.338 90.9434L338.539 83.3262C341.241 85.6699 344.219 87.4277 347.475 88.5996C350.73 89.7715 354.262 90.3574 358.07 90.3574C363.214 90.3574 367.201 89.4134 370.033 87.5254C372.865 85.6048 374.281 82.903 374.281 79.4199V79.3711C374.281 76.8971 373.63 74.944 372.328 73.5117C371.059 72.0469 369.398 70.9727 367.348 70.2891C365.329 69.5729 362.709 68.9219 359.486 68.3359C359.389 68.3034 359.275 68.2871 359.145 68.2871C359.047 68.2871 358.949 68.2708 358.852 68.2383L358.119 68.0918C353.367 67.278 349.493 66.3665 346.498 65.3574C343.536 64.3158 340.997 62.444 338.881 59.7422C336.765 57.0078 335.707 53.1341 335.707 48.1211V48.0723C335.707 43.6777 336.684 39.9342 338.637 36.8418C340.622 33.7168 343.503 31.3405 347.279 29.7129C351.055 28.0853 355.596 27.2715 360.902 27.2715C363.441 27.2715 365.932 27.5482 368.373 28.1016C370.847 28.6549 373.272 29.485 375.648 30.5918C378.057 31.666 380.417 33.0332 382.729 34.6934L377.064 42.6035C374.363 40.6178 371.661 39.1367 368.959 38.1602C366.29 37.151 363.604 36.6465 360.902 36.6465C356.052 36.6465 352.276 37.623 349.574 39.5762C346.905 41.4967 345.57 44.2311 345.57 47.7793V47.8281C345.57 50.2695 346.254 52.1901 347.621 53.5898C349.021 54.9896 350.746 56.0312 352.797 56.7148C354.88 57.3659 357.761 58.0495 361.439 58.7656C361.57 58.7982 361.684 58.8307 361.781 58.8633C361.911 58.8633 362.042 58.8796 362.172 58.9121C362.335 58.9447 362.514 58.9772 362.709 59.0098C362.904 59.0423 363.083 59.0749 363.246 59.1074C367.543 59.9863 371.124 61.028 373.988 62.2324C376.885 63.4368 379.294 65.39 381.215 68.0918C383.168 70.7611 384.145 74.4232 384.145 79.0781V79.1758C384.145 83.5052 383.119 87.2161 381.068 90.3086C379.018 93.3685 376.039 95.7122 372.133 97.3398C368.259 98.9349 363.572 99.7324 358.07 99.7324ZM426.76 28.0039H435.256L461.428 99H450.686L431.008 41.7246L411.33 99H400.588L426.76 28.0039ZM412.648 73.9512H450.002V83.4238H412.648V73.9512Z" fill="white"/>
<path d="M63.1465 89.5273V87.0273H60.6465V89.5273H63.1465ZM91.3691 85.4746L93.0845 87.2933L93.0851 87.2927L91.3691 85.4746ZM91.3691 41.5781L89.643 43.3865L89.6535 43.3965L89.6641 43.4064L91.3691 41.5781ZM63.1465 37.4766H60.6465V39.9766H63.1465V37.4766ZM63.1465 28.0039V25.5039H60.6465V28.0039H63.1465ZM93.4688 96.0215L92.3723 93.7747L92.3652 93.7782L93.4688 96.0215ZM63.1465 99H60.6465V101.5H63.1465V99ZM56.4082 28.0039V25.5039H53.9082V28.0039H56.4082ZM66.3691 28.0039H68.8691V25.5039H66.3691V28.0039ZM66.3691 99V101.5H68.8691V99H66.3691ZM56.4082 99H53.9082V101.5H56.4082V99ZM63.1465 92.0273H79.2109V87.0273H63.1465V92.0273ZM79.2109 92.0273C84.8733 92.0273 89.6195 90.5614 93.0845 87.2933L89.6538 83.6559C87.3896 85.7914 84.0303 87.0273 79.2109 87.0273V92.0273ZM93.0851 87.2927C96.5988 83.9764 98.2148 79.4093 98.2148 73.9512H93.2148C93.2148 78.3889 91.9338 81.5041 89.6532 83.6565L93.0851 87.2927ZM98.2148 73.9512V53.0527H93.2148V73.9512H98.2148ZM98.2148 53.0527C98.2148 47.596 96.5991 43.0371 93.0742 39.7498L89.6641 43.4064C91.9334 45.5228 93.2148 48.6137 93.2148 53.0527H98.2148ZM93.0953 39.7697C89.6311 36.463 84.8809 34.9766 79.2109 34.9766V39.9766C84.0228 39.9766 87.378 41.2245 89.643 43.3865L93.0953 39.7697ZM79.2109 34.9766H63.1465V39.9766H79.2109V34.9766ZM65.6465 37.4766V28.0039H60.6465V37.4766H65.6465ZM63.1465 30.5039H78.918V25.5039H63.1465V30.5039ZM78.918 30.5039C84.331 30.5039 88.7999 31.4478 92.414 33.2257L94.6211 28.7392C90.1623 26.5457 84.8982 25.5039 78.918 25.5039V30.5039ZM92.414 33.2257C96.0093 34.9943 98.7006 37.5397 100.561 40.8879L104.931 38.4597C102.56 34.1907 99.0988 30.9419 94.6211 28.7392L92.414 33.2257ZM100.561 40.8879C102.427 44.2481 103.42 48.3993 103.42 53.4434H108.42C108.42 47.7452 107.297 42.7168 104.931 38.4597L100.561 40.8879ZM103.42 53.4434V73.5605H108.42V53.4434H103.42ZM103.42 73.5605C103.42 78.6046 102.427 82.7558 100.561 86.116L104.931 88.5442C107.297 84.2871 108.42 79.2587 108.42 73.5605H103.42ZM100.561 86.116C98.7037 89.4587 96.0003 92.0043 92.3723 93.7747L94.5652 98.2682C99.0752 96.0673 102.557 92.8187 104.931 88.5442L100.561 86.116ZM92.3652 93.7782C88.7511 95.5561 84.2821 96.5 78.8691 96.5V101.5C84.8494 101.5 90.1135 100.458 94.5723 98.2647L92.3652 93.7782ZM78.8691 96.5H63.1465V101.5H78.8691V96.5ZM65.6465 99V89.5273H60.6465V99H65.6465ZM56.4082 30.5039H66.3691V25.5039H56.4082V30.5039ZM63.8691 28.0039V99H68.8691V28.0039H63.8691ZM66.3691 96.5H56.4082V101.5H66.3691V96.5ZM58.9082 99V28.0039H53.9082V99H58.9082ZM124.756 90.9922L123.297 88.962L121.268 90.4199L122.725 92.4498L124.756 90.9922ZM132.91 85.1328L135.081 83.8925L133.704 81.4837L131.451 83.1026L132.91 85.1328ZM151.855 86.5488L149.99 84.8848L149.983 84.8919L149.977 84.899L151.855 86.5488ZM155.078 28.0039V25.5039H152.578V28.0039H155.078ZM165.039 28.0039H167.539V25.5039H165.039V28.0039ZM162.451 89.0391L160.211 87.9294L162.451 89.0391ZM142.871 97.2324C139.443 97.2324 136.353 96.5407 133.561 95.1877L131.381 99.6873C134.903 101.394 138.747 102.232 142.871 102.232V97.2324ZM133.561 95.1877C130.766 93.8336 128.522 91.9527 126.787 89.5346L122.725 92.4498C124.961 95.5655 127.86 97.9815 131.381 99.6873L133.561 95.1877ZM126.215 93.0224L134.369 87.163L131.451 83.1026L123.297 88.962L126.215 93.0224ZM130.74 86.3732C131.906 88.4146 133.596 89.9839 135.73 91.0713L138 86.6162C136.684 85.9458 135.737 85.0412 135.081 83.8925L130.74 86.3732ZM135.73 91.0713C137.864 92.1584 140.268 92.6621 142.871 92.6621V87.6621C140.917 87.6621 139.317 87.2869 138 86.6162L135.73 91.0713ZM142.871 92.6621C147.301 92.6621 151.045 91.2596 153.734 88.1987L149.977 84.899C148.434 86.6558 146.189 87.6621 142.871 87.6621V92.6621ZM153.721 88.2129C156.403 85.2059 157.578 81.1503 157.578 76.3926H152.578C152.578 80.3588 151.605 83.0741 149.99 84.8848L153.721 88.2129ZM157.578 76.3926V28.0039H152.578V76.3926H157.578ZM155.078 30.5039H165.039V25.5039H155.078V30.5039ZM162.539 28.0039V76.4414H167.539V28.0039H162.539ZM162.539 76.4414C162.539 81.0709 161.726 84.8703 160.211 87.9294L164.691 90.1487C166.627 86.2417 167.539 81.6427 167.539 76.4414H162.539ZM160.211 87.9294C158.706 90.9671 156.539 93.2365 153.68 94.8066L156.086 99.1895C159.867 97.1137 162.746 94.0772 164.691 90.1487L160.211 87.9294ZM153.68 94.8066C150.806 96.3844 147.237 97.2324 142.871 97.2324V102.232C147.881 102.232 152.319 101.258 156.086 99.1895L153.68 94.8066ZM211.561 28.0039V25.5039H209.818L209.215 27.1392L211.561 28.0039ZM220.057 28.0039L222.402 27.1392L221.8 25.5039H220.057V28.0039ZM246.229 99V101.5H249.815L248.574 98.1353L246.229 99ZM235.486 99L233.122 99.8123L233.702 101.5H235.486V99ZM215.809 41.7246L218.173 40.9123L215.809 34.0305L213.444 40.9123L215.809 41.7246ZM196.131 99V101.5H197.915L198.495 99.8123L196.131 99ZM185.389 99L183.043 98.1353L181.803 101.5H185.389V99ZM197.449 73.9512V71.4512H194.949V73.9512H197.449ZM234.803 73.9512H237.303V71.4512H234.803V73.9512ZM234.803 83.4238V85.9238H237.303V83.4238H234.803ZM197.449 83.4238H194.949V85.9238H197.449V83.4238ZM211.561 30.5039H220.057V25.5039H211.561V30.5039ZM217.711 28.8686L243.883 99.8647L248.574 98.1353L222.402 27.1392L217.711 28.8686ZM246.229 96.5H235.486V101.5H246.229V96.5ZM237.851 98.1877L218.173 40.9123L213.444 42.5369L233.122 99.8123L237.851 98.1877ZM213.444 40.9123L193.767 98.1877L198.495 99.8123L218.173 42.5369L213.444 40.9123ZM196.131 96.5H185.389V101.5H196.131V96.5ZM187.734 99.8647L213.906 28.8686L209.215 27.1392L183.043 98.1353L187.734 99.8647ZM197.449 76.4512H234.803V71.4512H197.449V76.4512ZM232.303 73.9512V83.4238H237.303V73.9512H232.303ZM234.803 80.9238H197.449V85.9238H234.803V80.9238ZM199.949 83.4238V73.9512H194.949V83.4238H199.949ZM268.092 95.8262L266.985 98.0678L266.996 98.0731L268.092 95.8262ZM260.67 90.9434L258.731 89.365L257.181 91.2685L259.056 92.8528L260.67 90.9434ZM266.871 83.3262L268.509 81.4377L266.561 79.7475L264.932 81.7478L266.871 83.3262ZM298.365 87.5254L299.752 89.6055L299.76 89.6L299.768 89.5945L298.365 87.5254ZM300.66 73.5117L298.771 75.149L298.79 75.1715L298.81 75.1934L300.66 73.5117ZM295.68 70.2891L294.844 72.6451L294.866 72.6532L294.889 72.6608L295.68 70.2891ZM287.818 68.3359L287.028 70.7076L287.196 70.7638L287.371 70.7956L287.818 68.3359ZM287.184 68.2383L287.974 65.8666L287.827 65.8174L287.674 65.7868L287.184 68.2383ZM286.451 68.0918L286.941 65.6403L286.907 65.6335L286.873 65.6277L286.451 68.0918ZM274.83 65.3574L274.001 67.7159L274.016 67.7213L274.032 67.7265L274.83 65.3574ZM267.213 59.7422L265.236 61.2721L265.24 61.2779L265.245 61.2836L267.213 59.7422ZM266.969 36.8418L264.859 35.501L264.855 35.5068L266.969 36.8418ZM296.705 28.1016L296.152 30.5397L296.159 30.5413L296.705 28.1016ZM303.98 30.5918L302.925 32.858L302.944 32.8667L302.962 32.8751L303.98 30.5918ZM311.061 34.6934L313.093 36.1488L314.546 34.1192L312.519 32.6629L311.061 34.6934ZM305.396 42.6035L303.916 44.618L305.956 46.1169L307.429 44.059L305.396 42.6035ZM297.291 38.1602L296.407 40.4986L296.424 40.5051L296.441 40.5113L297.291 38.1602ZM277.906 39.5762L279.366 41.6055L279.371 41.6022L277.906 39.5762ZM275.953 53.5898L274.165 55.3367L274.175 55.3472L274.185 55.3576L275.953 53.5898ZM281.129 56.7148L280.338 59.0866L280.361 59.094L280.383 59.101L281.129 56.7148ZM289.771 58.7656L290.378 56.3403L290.314 56.3243L290.249 56.3117L289.771 58.7656ZM290.113 58.8633L289.323 61.235L289.708 61.3633H290.113V58.8633ZM290.504 58.9121L289.898 61.3375L289.955 61.3519L290.014 61.3636L290.504 58.9121ZM291.578 59.1074L292.079 56.6581L292.068 56.656L291.578 59.1074ZM302.32 62.2324L301.351 64.537L301.361 64.5409L302.32 62.2324ZM309.547 68.0918L307.509 69.5402L307.519 69.5542L307.529 69.5681L309.547 68.0918ZM309.4 90.3086L311.477 91.7005L311.484 91.6903L309.4 90.3086ZM300.465 97.3398L301.417 99.6516L301.426 99.6475L300.465 97.3398ZM286.402 97.2324C283.143 97.2324 280.08 96.9221 277.206 96.3106L276.165 101.201C279.411 101.892 282.825 102.232 286.402 102.232V97.2324ZM277.206 96.3106C274.335 95.6997 271.664 94.7874 269.188 93.5793L266.996 98.0731C269.858 99.4691 272.917 100.51 276.165 101.201L277.206 96.3106ZM269.199 93.5846C266.749 92.3748 264.444 90.86 262.284 89.0339L259.056 92.8528C261.518 94.933 264.161 96.6733 266.985 98.0677L269.199 93.5846ZM262.609 92.5217L268.81 84.9045L264.932 81.7478L258.731 89.365L262.609 92.5217ZM265.233 85.2146C268.16 87.7535 271.405 89.672 274.96 90.9518L276.653 86.2474C273.698 85.1835 270.986 83.5863 268.509 81.4377L265.233 85.2146ZM274.96 90.9518C278.513 92.2309 282.334 92.8574 286.402 92.8574V87.8574C282.853 87.8574 279.611 87.3121 276.653 86.2474L274.96 90.9518ZM286.402 92.8574C291.803 92.8574 296.349 91.8741 299.752 89.6055L296.978 85.4453C294.717 86.9528 291.288 87.8574 286.402 87.8574V92.8574ZM299.768 89.5945C303.301 87.1988 305.113 83.7141 305.113 79.4199H300.113C300.113 82.0919 299.093 84.0109 296.962 85.4563L299.768 89.5945ZM305.113 79.4199V79.3711H300.113V79.4199H305.113ZM305.113 79.3711C305.113 76.454 304.337 73.8396 302.51 71.83L298.81 75.1934C299.588 76.0485 300.113 77.3403 300.113 79.3711H305.113ZM302.549 71.8744C300.953 70.0327 298.896 68.726 296.47 67.9174L294.889 72.6608C296.565 73.2193 297.828 74.061 298.771 75.149L302.549 71.8744ZM296.516 67.933C294.323 67.155 291.559 66.4751 288.266 65.8763L287.371 70.7956C290.523 71.3687 293 71.9908 294.844 72.6451L296.516 67.933ZM288.609 65.9642C288.199 65.8276 287.808 65.7871 287.477 65.7871V70.7871C287.406 70.7871 287.242 70.7791 287.028 70.7076L288.609 65.9642ZM287.477 65.7871C287.662 65.7871 287.831 65.8188 287.974 65.8666L286.393 70.61C286.732 70.7229 287.096 70.7871 287.477 70.7871V65.7871ZM287.674 65.7868L286.941 65.6403L285.961 70.5432L286.693 70.6897L287.674 65.7868ZM286.873 65.6277C282.189 64.8256 278.454 63.9405 275.628 62.9883L274.032 67.7265C277.195 68.7925 281.208 69.7304 286.029 70.5559L286.873 65.6277ZM275.659 62.999C273.188 62.1301 271.031 60.5634 269.181 58.2008L265.245 61.2836C267.626 64.3246 270.547 66.5014 274.001 67.7159L275.659 62.999ZM269.19 58.2122C267.536 56.0743 266.539 52.8212 266.539 48.1211H261.539C261.539 53.4471 262.658 57.9413 265.236 61.2721L269.19 58.2122ZM266.539 48.1211V48.0723H261.539V48.1211H266.539ZM266.539 48.0723C266.539 44.0542 267.428 40.7956 269.082 38.1768L264.855 35.5068C262.603 39.0729 261.539 43.3012 261.539 48.0723H266.539ZM269.079 38.1826C270.766 35.5274 273.233 33.4605 276.601 32.0087L274.622 27.4171C270.438 29.2205 267.143 31.9062 264.859 35.501L269.079 38.1826ZM276.601 32.0087C279.988 30.5488 284.174 29.7715 289.234 29.7715V24.7715C283.683 24.7715 278.787 25.6218 274.622 27.4171L276.601 32.0087ZM289.234 29.7715C291.59 29.7715 293.895 30.028 296.152 30.5397L297.258 25.6634C294.632 25.0683 291.957 24.7715 289.234 24.7715V29.7715ZM296.159 30.5413C298.452 31.054 300.706 31.8247 302.925 32.858L305.036 28.3255C302.502 27.1454 299.906 26.2559 297.251 25.6619L296.159 30.5413ZM302.962 32.8751C305.205 33.875 307.418 35.1549 309.602 36.7238L312.519 32.6629C310.081 30.9115 307.574 29.4571 304.999 28.3085L302.962 32.8751ZM309.028 33.2379L303.364 41.148L307.429 44.059L313.093 36.1488L309.028 33.2379ZM306.877 40.589C304.014 38.4846 301.102 36.8793 298.141 35.809L296.441 40.5113C298.884 41.3942 301.376 42.7511 303.916 44.618L306.877 40.589ZM298.175 35.8217C295.239 34.7118 292.255 34.1465 289.234 34.1465V39.1465C291.617 39.1465 294.004 39.5902 296.407 40.4986L298.175 35.8217ZM289.234 34.1465C284.087 34.1465 279.724 35.1774 276.442 37.5501L279.371 41.6022C281.492 40.0687 284.681 39.1465 289.234 39.1465V34.1465ZM276.446 37.5469C273.066 39.979 271.402 43.5011 271.402 47.7793H276.402C276.402 44.9612 277.408 43.0145 279.366 41.6055L276.446 37.5469ZM271.402 47.7793V47.8281H276.402V47.7793H271.402ZM271.402 47.8281C271.402 50.7521 272.235 53.3608 274.165 55.3367L277.742 51.843C276.937 51.0194 276.402 49.787 276.402 47.8281H271.402ZM274.185 55.3576C275.884 57.0564 277.954 58.2917 280.338 59.0866L281.919 54.3431C280.202 53.7708 278.822 52.9228 277.721 51.8221L274.185 55.3576ZM280.383 59.101C282.595 59.7922 285.579 60.4963 289.294 61.2196L290.249 56.3117C286.607 55.6026 283.83 54.9396 281.875 54.3286L280.383 59.101ZM289.165 61.191C289.251 61.2124 289.301 61.2277 289.323 61.235L290.904 56.4916C290.731 56.4338 290.553 56.384 290.378 56.3403L289.165 61.191ZM290.113 61.3633C290.033 61.3633 289.96 61.353 289.898 61.3375L291.11 56.4868C290.788 56.4062 290.454 56.3633 290.113 56.3633V61.3633ZM290.014 61.3636C290.207 61.4023 290.413 61.4396 290.63 61.4758L291.452 56.5438C291.278 56.5148 291.126 56.4871 290.994 56.4607L290.014 61.3636ZM290.63 61.4758C290.804 61.5047 290.956 61.5325 291.088 61.5589L292.068 56.656C291.875 56.6173 291.669 56.5799 291.452 56.5438L290.63 61.4758ZM291.077 61.5567C295.273 62.415 298.685 63.416 301.351 64.537L303.289 59.9278C300.226 58.64 296.477 57.5576 292.079 56.6581L291.077 61.5567ZM301.361 64.5409C303.8 65.555 305.844 67.1979 307.509 69.5402L311.585 66.6433C309.408 63.5821 306.635 61.3187 303.28 59.924L301.361 64.5409ZM307.529 69.5681C309.064 71.6659 309.977 74.744 309.977 79.0781H314.977C314.977 74.1023 313.936 69.8562 311.564 66.6155L307.529 69.5681ZM309.977 79.0781V79.1758H314.977V79.0781H309.977ZM309.977 79.1758C309.977 83.0976 309.053 86.3088 307.317 88.9269L311.484 91.6903C313.849 88.1235 314.977 83.9128 314.977 79.1758H309.977ZM307.324 88.9167C305.586 91.5101 303.025 93.5647 299.503 95.0322L301.426 99.6475C305.717 97.8598 309.114 95.2269 311.477 91.7004L307.324 88.9167ZM299.513 95.0281C296.02 96.4666 291.674 97.2324 286.402 97.2324V102.232C292.133 102.232 297.163 101.403 301.417 99.6515L299.513 95.0281ZM339.76 95.8262L338.653 98.0678L338.664 98.0731L339.76 95.8262ZM332.338 90.9434L330.399 89.365L328.849 91.2685L330.724 92.8528L332.338 90.9434ZM338.539 83.3262L340.177 81.4377L338.229 79.7475L336.6 81.7478L338.539 83.3262ZM370.033 87.5254L371.42 89.6055L371.428 89.6L371.436 89.5945L370.033 87.5254ZM372.328 73.5117L370.439 75.149L370.458 75.1715L370.478 75.1934L372.328 73.5117ZM367.348 70.2891L366.512 72.6451L366.534 72.6532L366.557 72.6608L367.348 70.2891ZM359.486 68.3359L358.696 70.7076L358.864 70.7638L359.039 70.7956L359.486 68.3359ZM358.852 68.2383L359.642 65.8666L359.494 65.8174L359.342 65.7868L358.852 68.2383ZM358.119 68.0918L358.609 65.6403L358.575 65.6335L358.541 65.6277L358.119 68.0918ZM346.498 65.3574L345.669 67.7159L345.684 67.7213L345.7 67.7265L346.498 65.3574ZM338.881 59.7422L336.904 61.2721L336.908 61.2779L336.913 61.2836L338.881 59.7422ZM338.637 36.8418L336.527 35.501L336.523 35.5068L338.637 36.8418ZM368.373 28.1016L367.82 30.5397L367.827 30.5413L368.373 28.1016ZM375.648 30.5918L374.593 32.858L374.612 32.8667L374.63 32.8751L375.648 30.5918ZM382.729 34.6934L384.761 36.1488L386.214 34.1192L384.187 32.6629L382.729 34.6934ZM377.064 42.6035L375.584 44.618L377.623 46.1169L379.097 44.059L377.064 42.6035ZM368.959 38.1602L368.075 40.4986L368.092 40.5051L368.109 40.5113L368.959 38.1602ZM349.574 39.5762L351.034 41.6055L351.039 41.6022L349.574 39.5762ZM347.621 53.5898L345.833 55.3367L345.843 55.3472L345.853 55.3576L347.621 53.5898ZM352.797 56.7148L352.006 59.0866L352.029 59.094L352.051 59.101L352.797 56.7148ZM361.439 58.7656L362.046 56.3403L361.982 56.3243L361.917 56.3117L361.439 58.7656ZM361.781 58.8633L360.991 61.235L361.376 61.3633H361.781V58.8633ZM362.172 58.9121L361.566 61.3375L361.623 61.3519L361.682 61.3636L362.172 58.9121ZM363.246 59.1074L363.747 56.6581L363.736 56.656L363.246 59.1074ZM373.988 62.2324L373.019 64.537L373.029 64.5409L373.988 62.2324ZM381.215 68.0918L379.177 69.5402L379.187 69.5542L379.197 69.5681L381.215 68.0918ZM381.068 90.3086L383.145 91.7005L383.152 91.6903L381.068 90.3086ZM372.133 97.3398L373.085 99.6516L373.094 99.6475L372.133 97.3398ZM358.07 97.2324C354.811 97.2324 351.748 96.9221 348.874 96.3106L347.833 101.201C351.079 101.892 354.493 102.232 358.07 102.232V97.2324ZM348.874 96.3106C346.003 95.6997 343.332 94.7874 340.856 93.5793L338.664 98.0731C341.526 99.4691 344.585 100.51 347.833 101.201L348.874 96.3106ZM340.867 93.5846C338.417 92.3748 336.112 90.86 333.952 89.0339L330.724 92.8528C333.186 94.933 335.829 96.6733 338.653 98.0677L340.867 93.5846ZM334.277 92.5217L340.478 84.9045L336.6 81.7478L330.399 89.365L334.277 92.5217ZM336.901 85.2146C339.828 87.7535 343.073 89.672 346.628 90.9518L348.321 86.2474C345.366 85.1835 342.654 83.5863 340.177 81.4377L336.901 85.2146ZM346.628 90.9518C350.181 92.2309 354.002 92.8574 358.07 92.8574V87.8574C354.521 87.8574 351.279 87.3121 348.321 86.2474L346.628 90.9518ZM358.07 92.8574C363.471 92.8574 368.017 91.8741 371.42 89.6055L368.646 85.4453C366.385 86.9528 362.956 87.8574 358.07 87.8574V92.8574ZM371.436 89.5945C374.969 87.1988 376.781 83.7141 376.781 79.4199H371.781C371.781 82.0919 370.761 84.0109 368.63 85.4563L371.436 89.5945ZM376.781 79.4199V79.3711H371.781V79.4199H376.781ZM376.781 79.3711C376.781 76.454 376.005 73.8396 374.178 71.83L370.478 75.1934C371.256 76.0485 371.781 77.3403 371.781 79.3711H376.781ZM374.217 71.8744C372.621 70.0327 370.564 68.726 368.138 67.9174L366.557 72.6608C368.233 73.2193 369.496 74.061 370.439 75.149L374.217 71.8744ZM368.184 67.933C365.991 67.155 363.227 66.4751 359.934 65.8763L359.039 70.7956C362.191 71.3687 364.668 71.9908 366.512 72.6451L368.184 67.933ZM360.277 65.9642C359.867 65.8276 359.476 65.7871 359.145 65.7871V70.7871C359.074 70.7871 358.91 70.7791 358.696 70.7076L360.277 65.9642ZM359.145 65.7871C359.33 65.7871 359.499 65.8188 359.642 65.8666L358.061 70.61C358.4 70.7229 358.764 70.7871 359.145 70.7871V65.7871ZM359.342 65.7868L358.609 65.6403L357.629 70.5432L358.361 70.6897L359.342 65.7868ZM358.541 65.6277C353.857 64.8256 350.122 63.9405 347.296 62.9883L345.7 67.7265C348.863 68.7925 352.876 69.7304 357.697 70.5559L358.541 65.6277ZM347.327 62.999C344.856 62.1301 342.699 60.5634 340.849 58.2008L336.913 61.2836C339.294 64.3246 342.215 66.5014 345.669 67.7159L347.327 62.999ZM340.858 58.2122C339.204 56.0743 338.207 52.8212 338.207 48.1211H333.207C333.207 53.4471 334.326 57.9413 336.904 61.2721L340.858 58.2122ZM338.207 48.1211V48.0723H333.207V48.1211H338.207ZM338.207 48.0723C338.207 44.0542 339.096 40.7956 340.75 38.1768L336.523 35.5068C334.271 39.0729 333.207 43.3012 333.207 48.0723H338.207ZM340.747 38.1826C342.434 35.5274 344.901 33.4605 348.269 32.0087L346.29 27.4171C342.106 29.2205 338.811 31.9062 336.527 35.501L340.747 38.1826ZM348.269 32.0087C351.656 30.5488 355.842 29.7715 360.902 29.7715V24.7715C355.351 24.7715 350.455 25.6218 346.29 27.4171L348.269 32.0087ZM360.902 29.7715C363.258 29.7715 365.563 30.028 367.82 30.5397L368.926 25.6634C366.3 25.0683 363.625 24.7715 360.902 24.7715V29.7715ZM367.827 30.5413C370.12 31.054 372.374 31.8247 374.593 32.858L376.704 28.3255C374.17 27.1454 371.574 26.2559 368.919 25.6619L367.827 30.5413ZM374.63 32.8751C376.872 33.875 379.086 35.1549 381.27 36.7238L384.187 32.6629C381.749 30.9115 379.242 29.4571 376.667 28.3085L374.63 32.8751ZM380.696 33.2379L375.032 41.148L379.097 44.059L384.761 36.1488L380.696 33.2379ZM378.545 40.589C375.682 38.4846 372.77 36.8793 369.809 35.809L368.109 40.5113C370.552 41.3942 373.044 42.7511 375.584 44.618L378.545 40.589ZM369.843 35.8217C366.907 34.7118 363.923 34.1465 360.902 34.1465V39.1465C363.285 39.1465 365.672 39.5902 368.075 40.4986L369.843 35.8217ZM360.902 34.1465C355.755 34.1465 351.392 35.1774 348.11 37.5501L351.039 41.6022C353.16 40.0687 356.349 39.1465 360.902 39.1465V34.1465ZM348.114 37.5469C344.734 39.979 343.07 43.5011 343.07 47.7793H348.07C348.07 44.9612 349.076 43.0145 351.034 41.6055L348.114 37.5469ZM343.07 47.7793V47.8281H348.07V47.7793H343.07ZM343.07 47.8281C343.07 50.7521 343.903 53.3608 345.833 55.3367L349.41 51.843C348.605 51.0194 348.07 49.787 348.07 47.8281H343.07ZM345.853 55.3576C347.552 57.0564 349.622 58.2917 352.006 59.0866L353.587 54.3431C351.87 53.7708 350.49 52.9228 349.389 51.8221L345.853 55.3576ZM352.051 59.101C354.263 59.7922 357.247 60.4963 360.962 61.2196L361.917 56.3117C358.275 55.6026 355.498 54.9396 353.543 54.3286L352.051 59.101ZM360.833 61.191C360.919 61.2124 360.969 61.2277 360.991 61.235L362.572 56.4916C362.398 56.4338 362.221 56.384 362.046 56.3403L360.833 61.191ZM361.781 61.3633C361.701 61.3633 361.628 61.353 361.566 61.3375L362.778 56.4868C362.456 56.4062 362.122 56.3633 361.781 56.3633V61.3633ZM361.682 61.3636C361.875 61.4023 362.081 61.4396 362.298 61.4758L363.12 56.5438C362.946 56.5148 362.794 56.4871 362.662 56.4607L361.682 61.3636ZM362.298 61.4758C362.472 61.5047 362.624 61.5325 362.756 61.5589L363.736 56.656C363.543 56.6173 363.337 56.5799 363.12 56.5438L362.298 61.4758ZM362.745 61.5567C366.941 62.415 370.353 63.416 373.019 64.537L374.957 59.9278C371.894 58.64 368.145 57.5576 363.747 56.6581L362.745 61.5567ZM373.029 64.5409C375.468 65.555 377.512 67.1979 379.177 69.5402L383.252 66.6433C381.076 63.5821 378.303 61.3187 374.948 59.924L373.029 64.5409ZM379.197 69.5681C380.732 71.6659 381.645 74.744 381.645 79.0781H386.645C386.645 74.1023 385.604 69.8562 383.232 66.6155L379.197 69.5681ZM381.645 79.0781V79.1758H386.645V79.0781H381.645ZM381.645 79.1758C381.645 83.0976 380.721 86.3088 378.985 88.9269L383.152 91.6903C385.517 88.1235 386.645 83.9128 386.645 79.1758H381.645ZM378.992 88.9167C377.254 91.5101 374.693 93.5647 371.171 95.0322L373.094 99.6475C377.385 97.8598 380.782 95.2269 383.145 91.7004L378.992 88.9167ZM371.181 95.0281C367.688 96.4666 363.342 97.2324 358.07 97.2324V102.232C363.801 102.232 368.831 101.403 373.085 99.6515L371.181 95.0281ZM426.76 28.0039V25.5039H425.017L424.414 27.1392L426.76 28.0039ZM435.256 28.0039L437.602 27.1392L436.999 25.5039H435.256V28.0039ZM461.428 99V101.5H465.014L463.773 98.1353L461.428 99ZM450.686 99L448.321 99.8123L448.901 101.5H450.686V99ZM431.008 41.7246L433.372 40.9123L431.008 34.0305L428.643 40.9123L431.008 41.7246ZM411.33 99V101.5H413.115L413.694 99.8123L411.33 99ZM400.588 99L398.242 98.1353L397.002 101.5H400.588V99ZM412.648 73.9512V71.4512H410.148V73.9512H412.648ZM450.002 73.9512H452.502V71.4512H450.002V73.9512ZM450.002 83.4238V85.9238H452.502V83.4238H450.002ZM412.648 83.4238H410.148V85.9238H412.648V83.4238ZM426.76 30.5039H435.256V25.5039H426.76V30.5039ZM432.91 28.8686L459.082 99.8647L463.773 98.1353L437.602 27.1392L432.91 28.8686ZM461.428 96.5H450.686V101.5H461.428V96.5ZM453.05 98.1877L433.372 40.9123L428.643 42.5369L448.321 99.8123L453.05 98.1877ZM428.643 40.9123L408.966 98.1877L413.694 99.8123L433.372 42.5369L428.643 40.9123ZM411.33 96.5H400.588V101.5H411.33V96.5ZM402.934 99.8647L429.105 28.8686L424.414 27.1392L398.242 98.1353L402.934 99.8647ZM412.648 76.4512H450.002V71.4512H412.648V76.4512ZM447.502 73.9512V83.4238H452.502V73.9512H447.502ZM450.002 80.9238H412.648V85.9238H450.002V80.9238ZM415.148 83.4238V73.9512H410.148V83.4238H415.148Z" fill="white"/>
</g>
<path d="M569.457 99.7324C566.039 99.7324 562.8 99.4069 559.74 98.7559C556.68 98.1048 553.816 97.1283 551.146 95.8262C548.51 94.5241 546.036 92.8965 543.725 90.9434L549.926 83.3262C552.628 85.6699 555.606 87.4277 558.861 88.5996C562.117 89.7715 565.648 90.3574 569.457 90.3574C574.6 90.3574 578.588 89.4134 581.42 87.5254C584.252 85.6048 585.668 82.903 585.668 79.4199V79.3711C585.668 76.8971 585.017 74.944 583.715 73.5117C582.445 72.0469 580.785 70.9727 578.734 70.2891C576.716 69.5729 574.096 68.9219 570.873 68.3359C570.775 68.3034 570.661 68.2871 570.531 68.2871C570.434 68.2871 570.336 68.2708 570.238 68.2383L569.506 68.0918C564.753 67.278 560.88 66.3665 557.885 65.3574C554.923 64.3158 552.383 62.444 550.268 59.7422C548.152 57.0078 547.094 53.1341 547.094 48.1211V48.0723C547.094 43.6777 548.07 39.9342 550.023 36.8418C552.009 33.7168 554.89 31.3405 558.666 29.7129C562.442 28.0853 566.983 27.2715 572.289 27.2715C574.828 27.2715 577.318 27.5482 579.76 28.1016C582.234 28.6549 584.659 29.485 587.035 30.5918C589.444 31.666 591.804 33.0332 594.115 34.6934L588.451 42.6035C585.749 40.6178 583.048 39.1367 580.346 38.1602C577.676 37.151 574.991 36.6465 572.289 36.6465C567.439 36.6465 563.663 37.623 560.961 39.5762C558.292 41.4967 556.957 44.2311 556.957 47.7793V47.8281C556.957 50.2695 557.641 52.1901 559.008 53.5898C560.408 54.9896 562.133 56.0312 564.184 56.7148C566.267 57.3659 569.148 58.0495 572.826 58.7656C572.956 58.7982 573.07 58.8307 573.168 58.8633C573.298 58.8633 573.428 58.8796 573.559 58.9121C573.721 58.9447 573.9 58.9772 574.096 59.0098C574.291 59.0423 574.47 59.0749 574.633 59.1074C578.93 59.9863 582.51 61.028 585.375 62.2324C588.272 63.4368 590.681 65.39 592.602 68.0918C594.555 70.7611 595.531 74.4232 595.531 79.0781V79.1758C595.531 83.5052 594.506 87.2161 592.455 90.3086C590.404 93.3685 587.426 95.7122 583.52 97.3398C579.646 98.9349 574.958 99.7324 569.457 99.7324ZM632.043 33.8145H642.004V99H632.043V33.8145ZM611.975 28.0039H662.072V37.4766H611.975V28.0039ZM705.371 99.7324C700.423 99.7324 696.061 98.6582 692.285 96.5098C688.509 94.3288 685.579 91.2689 683.496 87.3301C681.445 83.3587 680.42 78.7689 680.42 73.5605V53.4434C680.42 48.235 681.445 43.6615 683.496 39.7227C685.579 35.7513 688.509 32.6914 692.285 30.543C696.061 28.362 700.423 27.2715 705.371 27.2715C710.319 27.2715 714.681 28.362 718.457 30.543C722.233 32.6914 725.146 35.7513 727.197 39.7227C729.281 43.6615 730.322 48.235 730.322 53.4434V73.5605C730.322 78.7689 729.281 83.3587 727.197 87.3301C725.146 91.2689 722.233 94.3288 718.457 96.5098C714.681 98.6582 710.319 99.7324 705.371 99.7324ZM705.371 89.918C708.301 89.918 710.872 89.2669 713.086 87.9648C715.332 86.6302 717.057 84.7585 718.262 82.3496C719.499 79.9082 720.117 77.0924 720.117 73.9023V53.1016C720.117 49.9115 719.499 47.112 718.262 44.7031C717.057 42.2617 715.332 40.39 713.086 39.0879C710.872 37.7533 708.301 37.0859 705.371 37.0859C702.441 37.0859 699.854 37.7533 697.607 39.0879C695.394 40.39 693.669 42.2617 692.432 44.7031C691.227 47.112 690.625 49.9115 690.625 53.1016V73.9023C690.625 77.0924 691.227 79.9082 692.432 82.3496C693.669 84.7585 695.394 86.6302 697.607 87.9648C699.854 89.2669 702.441 89.918 705.371 89.918ZM761.805 59.498H786.023C787.911 59.498 789.588 59.0423 791.053 58.1309C792.518 57.2194 793.641 55.9336 794.422 54.2734C795.236 52.5807 795.643 50.6439 795.643 48.4629C795.643 46.2819 795.236 44.3613 794.422 42.7012C793.641 41.0085 792.518 39.7064 791.053 38.7949C789.62 37.8835 787.944 37.4277 786.023 37.4277H761.805V27.9551H785.633C789.734 27.9551 793.331 28.8014 796.424 30.4941C799.549 32.1868 801.958 34.5957 803.65 37.7207C805.376 40.8132 806.238 44.3939 806.238 48.4629C806.238 52.5319 805.376 56.1289 803.65 59.2539C801.925 62.3464 799.5 64.7389 796.375 66.4316C793.283 68.1243 789.702 68.9707 785.633 68.9707H761.805V59.498ZM757.459 27.9551H767.42V99H757.459V27.9551ZM781.141 66.7734L791.053 64.5273L809.217 99H797.4L781.141 66.7734ZM834.693 28.0039H844.654V99H834.693V28.0039ZM839.527 89.5273H880.299V99H839.527V89.5273ZM839.527 59.0098H874.928V68.4824H839.527V59.0098ZM839.527 28.0039H880.299V37.4766H839.527V28.0039Z" fill="white"/>
<defs>
<filter id="filter0_d" x="49.9082" y="24.7715" width="419.106" height="85.4609" filterUnits="userSpaceOnUse" color-interpolation-filters="sRGB">
<feFlood flood-opacity="0" result="BackgroundImageFix"/>
<feColorMatrix in="SourceAlpha" type="matrix" values="0 0 0 0 0 0 0 0 0 0 0 0 0 0 0 0 0 0 127 0"/>
<feOffset dy="4"/>
<feGaussianBlur stdDeviation="2"/>
<feColorMatrix type="matrix" values="0 0 0 0 0 0 0 0 0 0 0 0 0 0 0 0 0 0 0.25 0"/>
<feBlend mode="normal" in2="BackgroundImageFix" result="effect1_dropShadow"/>
<feBlend mode="normal" in="SourceGraphic" in2="effect1_dropShadow" result="shape"/>
</filter>
</defs>
</svg>
